<?xml version="1.0" standalone="no"?>
<!DOCTYPE svg PUBLIC "-//W3C//DTD SVG 20010904//EN"
 "http://www.w3.org/TR/2001/REC-SVG-20010904/DTD/svg10.dtd">
<svg version="1.0" xmlns="http://www.w3.org/2000/svg"
 width="512.000000pt" height="512.000000pt" viewBox="0 0 512.000000 512.000000"
 preserveAspectRatio="xMidYMid meet">
<metadata>
Created by potrace 1.14, written by Peter Selinger 2001-2017
</metadata>
<g transform="translate(0.000000,512.000000) scale(0.100000,-0.100000)"
fill="#000000" stroke="none">
<path d="M2537 5113 c-9 -2 -48 -57 -86 -121 -104 -177 -248 -427 -303 -524
-27 -47 -54 -90 -61 -96 -8 -6 -125 56 -382 204 -203 118 -375 214 -382 214
-22 0 -62 -22 -69 -39 -4 -9 -9 -179 -10 -378 -1 -200 -4 -370 -8 -378 -3 -9
-10 -14 -14 -11 -5 3 -45 8 -88 11 -43 3 -99 8 -124 10 -25 2 -81 7 -125 10
-44 3 -96 8 -115 10 -19 2 -78 7 -130 11 -52 4 -106 8 -120 9 -43 3 -80 -24
-87 -65 -4 -22 21 -78 197 -445 34 -71 75 -158 90 -192 l29 -62 -67 -25 c-37
-14 -192 -72 -345 -130 -153 -57 -287 -112 -298 -122 -19 -17 -26 -69 -11 -89
4 -6 57 -51 117 -100 61 -50 119 -97 130 -107 11 -9 88 -72 171 -140 83 -68
153 -126 155 -130 2 -4 -77 -91 -176 -193 -346 -358 -346 -358 -342 -385 10
-66 -5 -60 402 -160 160 -39 307 -75 327 -81 l37 -9 -115 -338 c-63 -185 -117
-350 -119 -367 -6 -38 21 -75 59 -79 16 -2 69 5 120 16 50 10 102 21 116 23
14 3 133 27 265 54 132 26 241 47 243 46 1 -1 5 -29 8 -61 2 -32 6 -66 9 -74
2 -8 6 -37 9 -65 16 -142 35 -299 41 -335 2 -14 7 -52 10 -85 3 -33 8 -69 10
-80 2 -11 4 -25 4 -31 2 -22 43 -54 70 -54 29 0 20 -6 395 273 l239 178 110
-168 c60 -92 152 -232 203 -310 79 -120 97 -142 124 -148 21 -5 38 -2 54 8 13
9 60 83 104 164 45 82 95 174 112 204 16 30 57 105 90 167 34 61 64 112 66
112 3 0 143 -87 312 -193 169 -107 315 -196 325 -200 10 -4 33 0 52 7 45 19
43 -2 61 461 5 143 11 277 13 313 1 13 47 12 141 -3 14 -2 48 -6 75 -10 28 -3
66 -8 85 -10 35 -5 159 -19 260 -31 30 -3 78 -10 105 -14 91 -14 129 -1 140
50 6 26 -21 97 -150 395 -7 17 -19 46 -28 65 -8 19 -21 51 -30 70 -51 117 -77
183 -74 186 2 2 161 56 353 120 192 63 357 123 366 131 11 9 18 30 18 50 0 37
-7 45 -125 148 -37 33 -73 65 -79 70 -6 6 -67 60 -136 120 -69 60 -141 125
-161 143 -20 18 -44 39 -53 45 -15 11 -6 23 72 97 48 47 172 166 275 264 154
147 187 184 187 206 0 53 -26 69 -185 115 -83 24 -181 53 -220 64 -38 12 -131
38 -205 59 -128 36 -135 40 -132 63 1 13 6 33 11 44 6 11 46 117 91 235 44
118 84 224 89 235 28 63 61 158 61 176 0 11 -12 32 -26 46 -23 23 -31 25 -77
20 -29 -4 -63 -8 -77 -11 -14 -3 -43 -7 -65 -11 -38 -5 -186 -29 -250 -40 -38
-6 -79 -13 -130 -21 -22 -3 -73 -12 -112 -19 -71 -12 -73 -12 -74 9 -1 12 -3
30 -4 41 -1 11 -6 61 -10 110 -4 50 -8 106 -10 125 -1 19 -6 78 -9 130 -4 52
-9 113 -11 135 -2 22 -7 72 -10 110 -7 78 -22 110 -59 119 -35 9 -55 -1 -201
-103 -278 -192 -455 -311 -462 -311 -7 0 -102 158 -204 339 -179 316 -192 332
-262 314z"/>
</g>
</svg>
